<svg width="40" height="40" viewBox="0 0 40 40" fill="none" xmlns="http://www.w3.org/2000/svg">
<rect width="40" height="40" fill="white"/>
<path d="M14 20.8374C15.2048 20.6036 16.3393 19.9517 17.4063 19.3811C19.7504 18.1276 21.9828 16.8044 23.8632 14.9035C24.3427 14.4189 25.0726 13.8047 25.0726 13.079C25.0726 12.7313 24.8777 13.6411 24.8675 13.6858C24.5535 15.0627 24.0981 16.4282 23.7251 17.7909C23.0838 20.1339 22.5156 22.5099 21.7667 24.8211C21.262 26.3787 20.5969 27.8968 20.118 29.4577C19.9887 29.8791 19.8577 30.3047 19.7413 30.7299C19.6838 30.9402 19.6908 31.2778 19.5405 31.4496C19.396 31.6147 19.3846 32.1061 19.3312 32.3033C19.188 32.8322 18.7757 33.4733 18.7454 34.019C18.7424 34.0723 18.6289 34.3832 18.5989 34.2784C18.5619 34.1489 18.6618 33.8001 18.6701 33.6424C18.677 33.5103 18.732 33.1917 18.7872 33.0733C19.107 32.3882 19.2164 31.6032 19.5028 30.9014C19.971 29.7545 20.3995 28.5802 20.9465 27.4658C21.2956 26.7546 21.6107 26.0167 21.9048 25.2815C22.2453 24.4303 22.2864 23.5806 22.5116 22.7121C23.019 20.7548 23.7527 18.995 24.9805 17.3725C26.0177 16.0019 27.4166 14.9917 29.1233 14.6441C29.6534 14.5361 30.8704 14.2691 31.2868 14.778C32.9889 16.8584 31.183 19.6985 29.525 21.1889C28.2536 22.3317 26.9293 23.6366 25.3404 24.3357C24.8489 24.552 24.2718 24.8211 23.7251 24.8211" stroke="#199233" stroke-linecap="round" stroke-linejoin="round"/>
<path d="M19.5029 8C19.5029 9.23414 19.1659 10.36 18.9798 11.5695C18.9344 11.8646 18.9003 11.3557 18.9003 11.2808C18.9003 10.872 18.9386 10.5156 18.6241 10.2011C17.957 9.53408 17.0484 9.05547 16.13 8.87459C15.2203 8.6954 14.5 8.87459 14 9.5C13 10.7508 12.7942 11.5816 13 13C13.2457 14.6936 15.386 16.5933 16.9921 16.7208C17.1083 16.73 18.7513 16.7065 18.5739 16.4404C18.4496 16.2541 17.7599 16.3668 17.603 16.3777C16.1668 16.4767 14.8561 16.9654 13.5607 17.5745C11.1255 18.7193 8.55557 20.9188 8.10388 23.7175C7.71804 26.1082 8.38763 28.4435 10.4389 29.869C11.4104 30.5441 12.4982 30.8972 13.6611 31.0741C15.5324 31.3588 17.5304 31.4843 19.3815 31.0197C22.0122 30.3596 24.5057 29.0441 26.8427 27.7013C28.2256 26.9068 29.5774 26.0141 30.7889 24.9729C31.6339 24.2466 32.2856 23.3883 33.0611 22.6128" stroke="#199233" stroke-linecap="round" stroke-linejoin="round"/>
<circle cx="20" cy="20" r="19.5" stroke="#199233"/>
</svg>
